<?xml version="1.0" standalone="no"?><!DOCTYPE svg PUBLIC "-//W3C//DTD SVG 1.1//EN" "http://www.w3.org/Graphics/SVG/1.1/DTD/svg11.dtd"><svg t="1732261760088" class="icon" viewBox="0 0 1024 1024" version="1.1" xmlns="http://www.w3.org/2000/svg" p-id="14800" xmlns:xlink="http://www.w3.org/1999/xlink" width="200" height="200"><path d="M132.8 1004.4c-1.2 0-2.2 0-3.4-0.2-1.2-0.2-2.2-0.2-3.2-0.4s-2.2-0.4-3.2-0.8-2-0.6-3.2-1.2c-1-0.4-2-0.8-3-1.4-1-0.6-2-1-2.8-1.8s-1.8-1.2-2.6-2-1.6-1.4-2.4-2.2c-0.8-0.8-1.6-1.6-2.2-2.4-0.8-0.8-1.4-1.8-2-2.6-0.6-1-1.2-1.8-1.8-2.8-0.6-1-1-2-1.4-3-0.4-1-0.8-2-1.2-3.2s-0.6-2.2-0.8-3.2-0.4-2.2-0.4-3.2-0.2-2.2-0.2-3.4V135.8c0-2.2 0.2-4.4 0.4-6.6 0.2-2.2 0.8-4.4 1.2-6.4s1.2-4.2 2.2-6.2c0.8-2 1.8-4 3-6 1-2 2.4-3.8 3.6-5.4s2.8-3.4 4.4-5c1.6-1.6 3.2-3 5-4.4 1.8-1.4 3.6-2.6 5.4-3.6 25.6-14.8 77-32.6 177.4-32.6 78.4 0 166.2 31 243.8 58.4 62.4 22 121.2 42.8 161.2 42.8 25.8 0 51.2-2.6 76.4-7.8 25.2-5.2 49.6-12.8 73.4-22.8 1.4-0.6 3-1.2 4.4-1.6s3-0.8 4.6-1c1.6-0.2 3-0.4 4.6-0.4 1.6 0 3.2 0 4.6 0.2 1.6 0.2 3 0.4 4.6 0.8 1.6 0.4 3 0.8 4.4 1.2 1.4 0.6 3 1.2 4.4 1.8 1.4 0.6 2.8 1.4 4 2.4s2.6 1.8 3.8 2.8c1.2 1 2.4 2 3.4 3.2l3 3.6c1 1.2 1.8 2.6 2.4 4 1 1.2 1.4 2.8 2 4.2 0.6 1.4 1 3 1.4 4.4 0.4 1.6 0.6 3 0.8 4.6 0.2 1.6 0.2 3.2 0.2 4.6v462.8c0 2-0.2 4-0.4 6s-0.8 4-1.4 6c-0.6 2-1.4 3.8-2.2 5.8-0.8 1.8-1.8 3.6-3 5.4-1.2 1.8-2.4 3.4-3.8 4.8-1.4 1.6-2.8 3-4.4 4.2-1.6 1.4-3.2 2.6-5 3.6-1.8 1-3.6 2-5.4 2.8-18.4 8-85.4 34.2-177.2 34.2-51 0-114.8-15-182.2-31-75.8-18-154.4-36.4-222.8-36.4-77.8 0-117.6 11.8-135 19.2v318.2c0 1.2 0 2.2-0.2 3.4-0.2 1-0.2 2.2-0.4 3.2s-0.4 2.2-0.8 3.2-0.6 2-1.2 3.2c-0.4 1-0.8 2-1.4 3-0.6 1-1 2-1.8 2.8-0.6 1-1.2 1.8-2 2.6s-1.4 1.6-2.2 2.4c-0.8 0.8-1.6 1.6-2.4 2.2-0.8 0.8-1.8 1.4-2.6 2-1 0.6-1.8 1.2-2.8 1.8-1 0.6-2 1-3 1.4-1 0.4-2 0.8-3.2 1.2-1 0.4-2.2 0.6-3.2 0.8-1 0.2-2.2 0.4-3.2 0.4-0.8 0.2-2 0.2-3 0.2z" p-id="14801" fill="#66C1F0"></path></svg>