<svg width="1024" height="1024" xmlns="http://www.w3.org/2000/svg" p-id="2281" version="1.1" class="icon" t="1731684397015">

 <g>
  <title>Layer 1</title>
  <path transform="rotate(-90 511.037 553.454)" id="svg_1" fill="#8a909c" p-id="2282" d="m186.1632,373.41867a51.2,51.2 0 0 1 68.74453,-3.34507l3.65227,3.31093l253.20107,253.20107l251.4944,-254.8736a51.2,51.2 0 0 1 68.74453,-3.75467l3.6864,3.2768a51.2,51.2 0 0 1 3.75467,68.74454l-3.2768,3.65226l-287.744,291.56694a51.2,51.2 0 0 1 -69.15414,3.41333l-3.4816,-3.1744l-289.62133,-289.62133a51.2,51.2 0 0 1 0,-72.43094l0,0.03414z"/>
 </g>
</svg>