<svg t="1731664046046" class="icon" viewBox="0 0 1024 1024" version="1.1" xmlns="http://www.w3.org/2000/svg" p-id="18616" width="200" height="200"><path d="M777.910127 195.053129A312.661226 312.661226 0 0 0 691.700624 65.617453 265.670976 265.670976 0 0 0 511.753464 0.049662a265.185289 265.185289 0 0 0-179.340051 65.567791 313.996867 313.996867 0 0 0-86.938035 129.435676 194.274937 194.274937 0 0 0-10.806543 65.203526v57.068263a114.986478 114.986478 0 0 1-12.870715 52.818498L67.106702 674.305114l-2.792702 7.042466v2.064172a125.914443 125.914443 0 0 0 23.555836 106.486949 118.629133 118.629133 0 0 0 93.25197 46.140298h105.151309a229.972956 229.972956 0 0 0 452.174915 0h105.15131a118.143446 118.143446 0 0 0 93.130548-46.140298 125.428756 125.428756 0 0 0 23.555836-106.486949l-1.457062-4.128343-157.848386-307.318665a124.700225 124.700225 0 0 1-12.142184-54.639826v-57.068263a194.274937 194.274937 0 0 0-10.927965-65.203526zM651.267153 836.038999a145.706203 145.706203 0 0 1-279.270222 0z" fill="#1a9ffe" p-id="18617"></path></svg>