<svg width="1024" height="1024" xmlns="http://www.w3.org/2000/svg" p-id="12297" version="1.1" class="icon" t="1731662577523">

 <g>
  <title>Layer 1</title>
  <path id="svg_1" fill="#1a9ffe" p-id="12298" d="m959.71846,279.48792l0,-102.0748c-1.87469,-21.9274 -9.77666,-34.73306 -41.13588,-40.79308c-18.52287,-3.5918 -47.32075,-3.40556 -82.39662,-5.12267c-10.96472,-0.50039 -72.71511,-2.43649 -138.80739,-30.61015c-157.33128,-67.21792 -153.48979,-98.45229 -180.19501,-101.76269c-0.81148,-0.06242 -2.78033,-0.12484 -4.99783,-0.12484c-2.21648,0 -4.55985,0.06242 -5.37133,0.15656c-26.45656,3.34212 -22.95788,34.63892 -180.06915,101.73199c-66.18642,28.17366 -127.96956,30.10976 -138.90154,30.61016c-35.07586,1.71711 -63.87477,1.53086 -82.39763,5.12267c-31.36025,6.05899 -39.29394,18.86567 -41.16761,40.79308l0,102.07479s-11.65034,395.86907 224.35988,619.57404c56.87843,53.90879 134.9659,106.38394 217.70839,122.37514c1.87368,0.40728 5.71415,1.06424 5.71415,1.06424c1.74985,-0.31415 3.49868,-0.65696 5.24751,-0.93837c82.9932,-15.92776 161.17175,-68.52877 218.0512,-122.50101c236.01023,-223.70497 224.35886,-619.57506 224.35886,-619.57506z"/>
 </g>
</svg>