<?xml version="1.0" standalone="no"?><!DOCTYPE svg PUBLIC "-//W3C//DTD SVG 1.1//EN" "http://www.w3.org/Graphics/SVG/1.1/DTD/svg11.dtd"><svg t="1731656427127" class="icon" viewBox="0 0 1024 1024" version="1.1" xmlns="http://www.w3.org/2000/svg" p-id="5142" xmlns:xlink="http://www.w3.org/1999/xlink" width="200" height="200"><path d="M1024 512c0 281.6-230.4 512-512 512-233.6 0-432-156.8-492.8-371.2l195.2 80C227.2 800 288 848 355.2 848c80 0 147.2-67.2 144-150.4l176-124.8c108.8 3.2 198.4-83.2 198.4-192 0-105.6-86.4-192-192-192s-192 86.4-192 192v3.2L368 560c-32-3.2-64 6.4-89.6 25.6L0 470.4C22.4 208 243.2 0 512 0c281.6 0 512 230.4 512 512zM320 777.6L256 752c12.8 25.6 32 41.6 57.6 54.4 54.4 22.4 118.4-3.2 144-57.6 9.6-25.6 12.8-57.6 0-83.2s-32-48-57.6-57.6-54.4-9.6-80 0l64 25.6c41.6 16 60.8 64 41.6 105.6-16 35.2-64 54.4-105.6 38.4z m361.6-268.8c-70.4 0-128-57.6-128-128s57.6-128 128-128 128 57.6 128 128-57.6 128-128 128z m0-32c54.4 0 96-44.8 96-96 0-54.4-44.8-96-96-96s-96 44.8-96 96c-3.2 51.2 41.6 96 96 96z" fill="#ffffff" p-id="5143"></path></svg>